{
	"patcher" : 	{
		"fileversion" : 1,
		"appversion" : 		{
			"major" : 9,
			"minor" : 0,
			"revision" : 7,
			"architecture" : "x64",
			"modernui" : 1
		}
,
		"classnamespace" : "box",
		"rect" : [ 801.0, 207.0, 2150.0, 1277.0 ],
		"gridsize" : [ 15.0, 15.0 ],
		"boxes" : [ 			{
				"box" : 				{
					"id" : "obj-117",
					"maxclass" : "toggle",
					"numinlets" : 1,
					"numoutlets" : 1,
					"outlettype" : [ "int" ],
					"parameter_enable" : 0,
					"patching_rect" : [ 796.0, 1693.0, 24.0, 24.0 ]
				}

			}
, 			{
				"box" : 				{
					"id" : "obj-115",
					"maxclass" : "message",
					"numinlets" : 2,
					"numoutlets" : 1,
					"outlettype" : [ "" ],
					"patching_rect" : [ 1937.0, 626.0, 35.0, 22.0 ],
					"text" : "clear"
				}

			}
, 			{
				"box" : 				{
					"id" : "obj-114",
					"maxclass" : "message",
					"numinlets" : 2,
					"numoutlets" : 1,
					"outlettype" : [ "" ],
					"patching_rect" : [ 1168.0, 601.0, 35.0, 22.0 ],
					"text" : "clear"
				}

			}
, 			{
				"box" : 				{
					"id" : "obj-113",
					"maxclass" : "message",
					"numinlets" : 2,
					"numoutlets" : 1,
					"outlettype" : [ "" ],
					"patching_rect" : [ 263.33333945274353, 603.999999433755875, 35.0, 22.0 ],
					"text" : "clear"
				}

			}
, 			{
				"box" : 				{
					"id" : "obj-111",
					"maxclass" : "comment",
					"numinlets" : 1,
					"numoutlets" : 0,
					"patching_rect" : [ 1310.0, 918.75, 82.0, 20.0 ],
					"text" : "8"
				}

			}
, 			{
				"box" : 				{
					"id" : "obj-110",
					"maxclass" : "comment",
					"numinlets" : 1,
					"numoutlets" : 0,
					"patching_rect" : [ 1156.0, 918.75, 82.0, 20.0 ],
					"text" : "7"
				}

			}
, 			{
				"box" : 				{
					"id" : "obj-109",
					"maxclass" : "comment",
					"numinlets" : 1,
					"numoutlets" : 0,
					"patching_rect" : [ 997.0, 918.75, 82.0, 20.0 ],
					"text" : "6"
				}

			}
, 			{
				"box" : 				{
					"id" : "obj-108",
					"maxclass" : "comment",
					"numinlets" : 1,
					"numoutlets" : 0,
					"patching_rect" : [ 840.0, 918.75, 82.0, 20.0 ],
					"text" : "5"
				}

			}
, 			{
				"box" : 				{
					"id" : "obj-107",
					"maxclass" : "comment",
					"numinlets" : 1,
					"numoutlets" : 0,
					"patching_rect" : [ 677.0, 918.75, 82.0, 20.0 ],
					"text" : "4"
				}

			}
, 			{
				"box" : 				{
					"id" : "obj-91",
					"maxclass" : "comment",
					"numinlets" : 1,
					"numoutlets" : 0,
					"patching_rect" : [ 522.0, 918.75, 82.0, 20.0 ],
					"text" : "3"
				}

			}
, 			{
				"box" : 				{
					"id" : "obj-89",
					"maxclass" : "comment",
					"numinlets" : 1,
					"numoutlets" : 0,
					"patching_rect" : [ 365.0, 918.75, 82.0, 20.0 ],
					"text" : "2"
				}

			}
, 			{
				"box" : 				{
					"id" : "obj-87",
					"maxclass" : "comment",
					"numinlets" : 1,
					"numoutlets" : 0,
					"patching_rect" : [ 206.0, 918.75, 82.0, 20.0 ],
					"text" : "1"
				}

			}
, 			{
				"box" : 				{
					"id" : "obj-85",
					"maxclass" : "comment",
					"numinlets" : 1,
					"numoutlets" : 0,
					"patching_rect" : [ 169.33333945274353, 886.375, 34.0, 20.0 ],
					"text" : "10"
				}

			}
, 			{
				"box" : 				{
					"id" : "obj-84",
					"maxclass" : "comment",
					"numinlets" : 1,
					"numoutlets" : 0,
					"patching_rect" : [ 169.33333945274353, 819.75, 34.0, 20.0 ],
					"text" : "8"
				}

			}
, 			{
				"box" : 				{
					"id" : "obj-83",
					"maxclass" : "comment",
					"numinlets" : 1,
					"numoutlets" : 0,
					"patching_rect" : [ 169.33333945274353, 758.000022888183594, 34.0, 20.0 ],
					"text" : "6"
				}

			}
, 			{
				"box" : 				{
					"fontface" : 0,
					"fontname" : "Arial",
					"fontsize" : 12.0,
					"id" : "obj-41",
					"maxclass" : "number~",
					"mode" : 2,
					"numinlets" : 2,
					"numoutlets" : 2,
					"outlettype" : [ "signal", "float" ],
					"patching_rect" : [ 551.0, 290.0, 56.0, 22.0 ],
					"sig" : 0.0
				}

			}
, 			{
				"box" : 				{
					"id" : "obj-40",
					"maxclass" : "message",
					"numinlets" : 2,
					"numoutlets" : 1,
					"outlettype" : [ "" ],
					"patching_rect" : [ 2904.0, 934.0, 50.0, 22.0 ]
				}

			}
, 			{
				"box" : 				{
					"id" : "obj-38",
					"maxclass" : "newobj",
					"numinlets" : 1,
					"numoutlets" : 3,
					"outlettype" : [ "", "int", "int" ],
					"patching_rect" : [ 953.0, 505.0, 48.0, 22.0 ],
					"text" : "change"
				}

			}
, 			{
				"box" : 				{
					"id" : "obj-37",
					"maxclass" : "newobj",
					"numinlets" : 1,
					"numoutlets" : 3,
					"outlettype" : [ "", "int", "int" ],
					"patching_rect" : [ 764.0, 505.0, 48.0, 22.0 ],
					"text" : "change"
				}

			}
, 			{
				"box" : 				{
					"id" : "obj-36",
					"maxclass" : "newobj",
					"numinlets" : 1,
					"numoutlets" : 3,
					"outlettype" : [ "", "int", "int" ],
					"patching_rect" : [ 639.0, 505.0, 48.0, 22.0 ],
					"text" : "change"
				}

			}
, 			{
				"box" : 				{
					"id" : "obj-35",
					"maxclass" : "message",
					"numinlets" : 2,
					"numoutlets" : 1,
					"outlettype" : [ "" ],
					"patching_rect" : [ 706.0, 207.0, 29.5, 22.0 ],
					"text" : "0"
				}

			}
, 			{
				"box" : 				{
					"id" : "obj-26",
					"maxclass" : "newobj",
					"numinlets" : 2,
					"numoutlets" : 1,
					"outlettype" : [ "float" ],
					"patching_rect" : [ 953.0, 471.0, 81.0, 22.0 ],
					"text" : "snapshot~ 10"
				}

			}
, 			{
				"box" : 				{
					"id" : "obj-32",
					"maxclass" : "newobj",
					"numinlets" : 2,
					"numoutlets" : 1,
					"outlettype" : [ "signal" ],
					"patching_rect" : [ 953.0, 438.0, 40.0, 22.0 ],
					"text" : "*~ 80."
				}

			}
, 			{
				"box" : 				{
					"id" : "obj-15",
					"maxclass" : "newobj",
					"numinlets" : 2,
					"numoutlets" : 1,
					"outlettype" : [ "float" ],
					"patching_rect" : [ 764.0, 471.0, 81.0, 22.0 ],
					"text" : "snapshot~ 10"
				}

			}
, 			{
				"box" : 				{
					"id" : "obj-19",
					"maxclass" : "newobj",
					"numinlets" : 2,
					"numoutlets" : 1,
					"outlettype" : [ "signal" ],
					"patching_rect" : [ 764.0, 438.0, 40.0, 22.0 ],
					"text" : "*~ 64."
				}

			}
, 			{
				"box" : 				{
					"id" : "obj-8",
					"maxclass" : "newobj",
					"numinlets" : 2,
					"numoutlets" : 1,
					"outlettype" : [ "float" ],
					"patching_rect" : [ 639.0, 471.0, 81.0, 22.0 ],
					"text" : "snapshot~ 10"
				}

			}
, 			{
				"box" : 				{
					"id" : "obj-5",
					"maxclass" : "newobj",
					"numinlets" : 2,
					"numoutlets" : 1,
					"outlettype" : [ "signal" ],
					"patching_rect" : [ 639.0, 438.0, 40.0, 22.0 ],
					"text" : "*~ 48."
				}

			}
, 			{
				"box" : 				{
					"id" : "obj-3",
					"maxclass" : "newobj",
					"numinlets" : 2,
					"numoutlets" : 1,
					"outlettype" : [ "signal" ],
					"patching_rect" : [ 639.0, 246.0, 86.0, 22.0 ],
					"text" : "phasor~ 0.125"
				}

			}
, 			{
				"box" : 				{
					"format" : 6,
					"id" : "obj-162",
					"maxclass" : "flonum",
					"numinlets" : 1,
					"numoutlets" : 2,
					"outlettype" : [ "", "bang" ],
					"parameter_enable" : 0,
					"patching_rect" : [ 1181.0, 1559.0, 50.0, 22.0 ]
				}

			}
, 			{
				"box" : 				{
					"id" : "obj-101",
					"maxclass" : "newobj",
					"numinlets" : 2,
					"numoutlets" : 1,
					"outlettype" : [ "int" ],
					"patching_rect" : [ 1880.0, 535.0, 29.5, 22.0 ],
					"text" : "+ 1"
				}

			}
, 			{
				"box" : 				{
					"id" : "obj-102",
					"maxclass" : "number",
					"numinlets" : 1,
					"numoutlets" : 2,
					"outlettype" : [ "", "bang" ],
					"parameter_enable" : 0,
					"patching_rect" : [ 1880.0, 266.0, 50.0, 22.0 ]
				}

			}
, 			{
				"box" : 				{
					"id" : "obj-103",
					"maxclass" : "button",
					"numinlets" : 1,
					"numoutlets" : 1,
					"outlettype" : [ "bang" ],
					"parameter_enable" : 0,
					"patching_rect" : [ 1880.0, 135.0, 85.600001275539398, 85.600001275539398 ]
				}

			}
, 			{
				"box" : 				{
					"id" : "obj-104",
					"maxclass" : "newobj",
					"numinlets" : 2,
					"numoutlets" : 1,
					"outlettype" : [ "" ],
					"patching_rect" : [ 1880.0, 234.0, 66.0, 22.0 ],
					"text" : "random 10"
				}

			}
, 			{
				"box" : 				{
					"id" : "obj-105",
					"maxclass" : "number",
					"numinlets" : 1,
					"numoutlets" : 2,
					"outlettype" : [ "", "bang" ],
					"parameter_enable" : 0,
					"patching_rect" : [ 1880.0, 574.0, 50.0, 22.0 ]
				}

			}
, 			{
				"box" : 				{
					"id" : "obj-106",
					"maxclass" : "itable",
					"name" : "",
					"numinlets" : 2,
					"numoutlets" : 2,
					"outlettype" : [ "int", "bang" ],
					"parameter_enable" : 0,
					"patching_rect" : [ 1880.0, 297.0, 269.0, 220.0 ],
					"range" : 5,
					"size" : 10,
					"table_data" : [ 0, 0, 0, 1, 1, 2, 2, 3, 3, 4, 4 ]
				}

			}
, 			{
				"box" : 				{
					"id" : "obj-95",
					"maxclass" : "newobj",
					"numinlets" : 2,
					"numoutlets" : 1,
					"outlettype" : [ "int" ],
					"patching_rect" : [ 1103.0, 510.0, 29.5, 22.0 ],
					"text" : "+ 1"
				}

			}
, 			{
				"box" : 				{
					"id" : "obj-96",
					"maxclass" : "number",
					"numinlets" : 1,
					"numoutlets" : 2,
					"outlettype" : [ "", "bang" ],
					"parameter_enable" : 0,
					"patching_rect" : [ 1103.0, 241.0, 50.0, 22.0 ]
				}

			}
, 			{
				"box" : 				{
					"id" : "obj-97",
					"maxclass" : "button",
					"numinlets" : 1,
					"numoutlets" : 1,
					"outlettype" : [ "bang" ],
					"parameter_enable" : 0,
					"patching_rect" : [ 1102.0, 124.0, 71.200001060962677, 71.200001060962677 ]
				}

			}
, 			{
				"box" : 				{
					"id" : "obj-98",
					"maxclass" : "newobj",
					"numinlets" : 2,
					"numoutlets" : 1,
					"outlettype" : [ "" ],
					"patching_rect" : [ 1103.0, 209.0, 66.0, 22.0 ],
					"text" : "random 10"
				}

			}
, 			{
				"box" : 				{
					"id" : "obj-99",
					"maxclass" : "number",
					"numinlets" : 1,
					"numoutlets" : 2,
					"outlettype" : [ "", "bang" ],
					"parameter_enable" : 0,
					"patching_rect" : [ 1103.0, 549.0, 50.0, 22.0 ]
				}

			}
, 			{
				"box" : 				{
					"id" : "obj-100",
					"maxclass" : "itable",
					"name" : "",
					"numinlets" : 2,
					"numoutlets" : 2,
					"outlettype" : [ "int", "bang" ],
					"parameter_enable" : 0,
					"patching_rect" : [ 1103.0, 272.0, 269.0, 220.0 ],
					"range" : 5,
					"size" : 10,
					"table_data" : [ 0, 0, 0, 0, 0, 0, 0, 0, 0, 0, 0 ]
				}

			}
, 			{
				"box" : 				{
					"id" : "obj-94",
					"maxclass" : "number",
					"numinlets" : 1,
					"numoutlets" : 2,
					"outlettype" : [ "", "bang" ],
					"parameter_enable" : 0,
					"patching_rect" : [ 1880.0, 626.0, 50.0, 22.0 ]
				}

			}
, 			{
				"box" : 				{
					"id" : "obj-93",
					"maxclass" : "number",
					"numinlets" : 1,
					"numoutlets" : 2,
					"outlettype" : [ "", "bang" ],
					"parameter_enable" : 0,
					"patching_rect" : [ 1103.0, 601.0, 50.0, 22.0 ]
				}

			}
, 			{
				"box" : 				{
					"id" : "obj-92",
					"maxclass" : "number",
					"numinlets" : 1,
					"numoutlets" : 2,
					"outlettype" : [ "", "bang" ],
					"parameter_enable" : 0,
					"patching_rect" : [ 205.33333945274353, 603.999999433755875, 50.0, 22.0 ]
				}

			}
, 			{
				"box" : 				{
					"id" : "obj-90",
					"maxclass" : "preset",
					"numinlets" : 1,
					"numoutlets" : 5,
					"outlettype" : [ "preset", "int", "preset", "int", "" ],
					"patching_rect" : [ 1880.0, 673.0, 116.0, 66.0 ],
					"preset_data" : [ 						{
							"number" : 1,
							"data" : [ 34, "obj-71", "matrixctrl", "list", 0, 0, 1.0, 1, 0, 0.0, 2, 0, 0.0, 3, 0, 0.0, 4, 0, 0.0, 5, 0, 0.0, 6, 0, 0.0, 7, 0, 0.0, 8, 0, 0.0, 9, 0, 0.0 ]
						}
, 						{
							"number" : 2,
							"data" : [ 34, "obj-71", "matrixctrl", "list", 0, 0, 1.0, 1, 0, 0.0, 2, 0, 0.0, 3, 0, 0.0, 4, 0, 0.0, 5, 0, 1.0, 6, 0, 0.0, 7, 0, 0.0, 8, 0, 0.0, 9, 0, 0.0 ]
						}
, 						{
							"number" : 3,
							"data" : [ 34, "obj-71", "matrixctrl", "list", 0, 0, 1.0, 1, 0, 0.0, 2, 0, 1.0, 3, 0, 0.0, 4, 0, 0.0, 5, 0, 1.0, 6, 0, 0.0, 7, 0, 1.0, 8, 0, 0.0, 9, 0, 0.0 ]
						}
, 						{
							"number" : 4,
							"data" : [ 34, "obj-71", "matrixctrl", "list", 0, 0, 1.0, 1, 0, 0.0, 2, 0, 1.0, 3, 0, 0.0, 4, 0, 1.0, 5, 0, 1.0, 6, 0, 1.0, 7, 0, 0.0, 8, 0, 0.0, 9, 0, 0.0 ]
						}
, 						{
							"number" : 5,
							"data" : [ 34, "obj-71", "matrixctrl", "list", 0, 0, 1.0, 1, 0, 0.0, 2, 0, 1.0, 3, 0, 0.0, 4, 0, 1.0, 5, 0, 0.0, 6, 0, 0.0, 7, 0, 0.0, 8, 0, 0.0, 9, 0, 1.0 ]
						}
, 						{
							"number" : 6,
							"data" : [ 34, "obj-71", "matrixctrl", "list", 0, 0, 1.0, 1, 0, 1.0, 2, 0, 1.0, 3, 0, 1.0, 4, 0, 1.0, 5, 0, 1.0, 6, 0, 1.0, 7, 0, 1.0, 8, 0, 1.0, 9, 0, 1.0 ]
						}
, 						{
							"number" : 8,
							"data" : [ 244, "obj-71", "matrixctrl", "list", 0, 0, 1.0, 1, 0, 0.0, 2, 0, 1.0, 3, 0, 0.0, 4, 0, 1.0, 5, 0, 0.0, 6, 0, 1.0, 7, 0, 0.0, 8, 0, 1.0, 9, 0, 0.0, 10, 0, 1.0, 11, 0, 0.0, 12, 0, 0.0, 13, 0, 0.0, 14, 0, 0.0, 15, 0, 0.0, 16, 0, 0.0, 17, 0, 0.0, 18, 0, 0.0, 19, 0, 0.0, 20, 0, 1.0, 21, 0, 0.0, 22, 0, 0.0, 23, 0, 0.0, 24, 0, 0.0, 25, 0, 0.0, 26, 0, 0.0, 27, 0, 0.0, 28, 0, 0.0, 29, 0, 0.0, 30, 0, 1.0, 31, 0, 0.0, 32, 0, 0.0, 33, 0, 0.0, 34, 0, 0.0, 35, 0, 0.0, 36, 0, 0.0, 37, 0, 0.0, 38, 0, 0.0, 39, 0, 0.0, 40, 0, 1.0, 41, 0, 0.0, 42, 0, 0.0, 43, 0, 0.0, 44, 0, 0.0, 45, 0, 0.0, 46, 0, 0.0, 47, 0, 0.0, 48, 0, 0.0, 49, 0, 0.0, 50, 0, 1.0, 51, 0, 0.0, 52, 0, 0.0, 53, 0, 0.0, 54, 0, 0.0, 55, 0, 0.0, 56, 0, 0.0, 57, 0, 0.0, 58, 0, 0.0, 59, 0, 0.0, 60, 0, 1.0, 61, 0, 0.0, 62, 0, 0.0, 63, 0, 0.0, 64, 0, 0.0, 65, 0, 0.0, 66, 0, 0.0, 67, 0, 0.0, 68, 0, 0.0, 69, 0, 0.0, 70, 0, 1.0, 71, 0, 0.0, 72, 0, 0.0, 73, 0, 0.0, 74, 0, 0.0, 75, 0, 0.0, 76, 0, 0.0, 77, 0, 0.0, 78, 0, 0.0, 79, 0, 0.0 ]
						}
, 						{
							"number" : 17,
							"data" : [ 244, "obj-71", "matrixctrl", "list", 0, 0, 1.0, 1, 0, 0.0, 2, 0, 0.0, 3, 0, 0.0, 4, 0, 0.0, 5, 0, 0.0, 6, 0, 0.0, 7, 0, 0.0, 8, 0, 0.0, 9, 0, 0.0, 10, 0, 1.0, 11, 0, 0.0, 12, 0, 0.0, 13, 0, 0.0, 14, 0, 0.0, 15, 0, 0.0, 16, 0, 0.0, 17, 0, 0.0, 18, 0, 0.0, 19, 0, 0.0, 20, 0, 1.0, 21, 0, 0.0, 22, 0, 0.0, 23, 0, 0.0, 24, 0, 0.0, 25, 0, 0.0, 26, 0, 0.0, 27, 0, 0.0, 28, 0, 0.0, 29, 0, 0.0, 30, 0, 1.0, 31, 0, 0.0, 32, 0, 0.0, 33, 0, 0.0, 34, 0, 0.0, 35, 0, 0.0, 36, 0, 0.0, 37, 0, 0.0, 38, 0, 0.0, 39, 0, 0.0, 40, 0, 1.0, 41, 0, 0.0, 42, 0, 0.0, 43, 0, 0.0, 44, 0, 0.0, 45, 0, 0.0, 46, 0, 0.0, 47, 0, 0.0, 48, 0, 0.0, 49, 0, 0.0, 50, 0, 1.0, 51, 0, 0.0, 52, 0, 0.0, 53, 0, 0.0, 54, 0, 0.0, 55, 0, 0.0, 56, 0, 0.0, 57, 0, 0.0, 58, 0, 0.0, 59, 0, 0.0, 60, 0, 1.0, 61, 0, 0.0, 62, 0, 0.0, 63, 0, 0.0, 64, 0, 0.0, 65, 0, 0.0, 66, 0, 0.0, 67, 0, 0.0, 68, 0, 0.0, 69, 0, 0.0, 70, 0, 1.0, 71, 0, 0.0, 72, 0, 0.0, 73, 0, 0.0, 74, 0, 0.0, 75, 0, 0.0, 76, 0, 0.0, 77, 0, 0.0, 78, 0, 0.0, 79, 0, 0.0 ]
						}
 ]
				}

			}
, 			{
				"box" : 				{
					"id" : "obj-88",
					"maxclass" : "preset",
					"numinlets" : 1,
					"numoutlets" : 5,
					"outlettype" : [ "preset", "int", "preset", "int", "" ],
					"patching_rect" : [ 1103.0, 647.0, 105.0, 68.0 ],
					"preset_data" : [ 						{
							"number" : 1,
							"data" : [ 28, "obj-2", "matrixctrl", "list", 0, 0, 1.0, 1, 0, 0.0, 2, 0, 0.0, 3, 0, 0.0, 4, 0, 0.0, 5, 0, 0.0, 6, 0, 0.0, 7, 0, 0.0 ]
						}
, 						{
							"number" : 2,
							"data" : [ 28, "obj-2", "matrixctrl", "list", 0, 0, 1.0, 1, 0, 0.0, 2, 0, 1.0, 3, 0, 1.0, 4, 0, 0.0, 5, 0, 0.0, 6, 0, 0.0, 7, 0, 0.0 ]
						}
, 						{
							"number" : 3,
							"data" : [ 28, "obj-2", "matrixctrl", "list", 0, 0, 1.0, 1, 0, 0.0, 2, 0, 1.0, 3, 0, 1.0, 4, 0, 0.0, 5, 0, 1.0, 6, 0, 0.0, 7, 0, 0.0 ]
						}
, 						{
							"number" : 4,
							"data" : [ 28, "obj-2", "matrixctrl", "list", 0, 0, 1.0, 1, 0, 0.0, 2, 0, 1.0, 3, 0, 1.0, 4, 0, 0.0, 5, 0, 1.0, 6, 0, 0.0, 7, 0, 1.0 ]
						}
, 						{
							"number" : 5,
							"data" : [ 28, "obj-2", "matrixctrl", "list", 0, 0, 1.0, 1, 0, 0.0, 2, 0, 0.0, 3, 0, 0.0, 4, 0, 1.0, 5, 0, 0.0, 6, 0, 0.0, 7, 0, 0.0 ]
						}
, 						{
							"number" : 6,
							"data" : [ 28, "obj-2", "matrixctrl", "list", 0, 0, 1.0, 1, 0, 1.0, 2, 0, 1.0, 3, 0, 1.0, 4, 0, 1.0, 5, 0, 1.0, 6, 0, 1.0, 7, 0, 1.0 ]
						}
, 						{
							"number" : 7,
							"data" : [ 196, "obj-2", "matrixctrl", "list", 0, 0, 1.0, 1, 0, 0.0, 2, 0, 0.0, 3, 0, 1.0, 4, 0, 0.0, 5, 0, 0.0, 6, 0, 1.0, 7, 0, 1.0, 8, 0, 0.0, 9, 0, 1.0, 10, 0, 0.0, 11, 0, 1.0, 12, 0, 0.0, 13, 0, 0.0, 14, 0, 1.0, 15, 0, 0.0, 16, 0, 0.0, 17, 0, 1.0, 18, 0, 0.0, 19, 0, 0.0, 20, 0, 0.0, 21, 0, 0.0, 22, 0, 1.0, 23, 0, 0.0, 24, 0, 0.0, 25, 0, 0.0, 26, 0, 1.0, 27, 0, 0.0, 28, 0, 0.0, 29, 0, 0.0, 30, 0, 1.0, 31, 0, 0.0, 32, 0, 0.0, 33, 0, 1.0, 34, 0, 0.0, 35, 0, 0.0, 36, 0, 1.0, 37, 0, 0.0, 38, 0, 0.0, 39, 0, 0.0, 40, 0, 0.0, 41, 0, 0.0, 42, 0, 1.0, 43, 0, 0.0, 44, 0, 0.0, 45, 0, 0.0, 46, 0, 1.0, 47, 0, 0.0, 48, 0, 1.0, 49, 0, 0.0, 50, 0, 1.0, 51, 0, 0.0, 52, 0, 0.0, 53, 0, 0.0, 54, 0, 0.0, 55, 0, 0.0, 56, 0, 0.0, 57, 0, 0.0, 58, 0, 0.0, 59, 0, 0.0, 60, 0, 0.0, 61, 0, 0.0, 62, 0, 0.0, 63, 0, 0.0 ]
						}
, 						{
							"number" : 8,
							"data" : [ 196, "obj-2", "matrixctrl", "list", 0, 0, 1.0, 1, 0, 0.0, 2, 0, 1.0, 3, 0, 1.0, 4, 0, 0.0, 5, 0, 1.0, 6, 0, 1.0, 7, 0, 1.0, 8, 0, 1.0, 9, 0, 1.0, 10, 0, 0.0, 11, 0, 1.0, 12, 0, 0.0, 13, 0, 1.0, 14, 0, 0.0, 15, 0, 0.0, 16, 0, 1.0, 17, 0, 1.0, 18, 0, 1.0, 19, 0, 1.0, 20, 0, 0.0, 21, 0, 1.0, 22, 0, 1.0, 23, 0, 1.0, 24, 0, 1.0, 25, 0, 1.0, 26, 0, 1.0, 27, 0, 0.0, 28, 0, 1.0, 29, 0, 1.0, 30, 0, 0.0, 31, 0, 1.0, 32, 0, 1.0, 33, 0, 0.0, 34, 0, 1.0, 35, 0, 0.0, 36, 0, 1.0, 37, 0, 0.0, 38, 0, 0.0, 39, 0, 1.0, 40, 0, 1.0, 41, 0, 0.0, 42, 0, 1.0, 43, 0, 0.0, 44, 0, 1.0, 45, 0, 0.0, 46, 0, 1.0, 47, 0, 0.0, 48, 0, 1.0, 49, 0, 1.0, 50, 0, 1.0, 51, 0, 1.0, 52, 0, 1.0, 53, 0, 1.0, 54, 0, 1.0, 55, 0, 1.0, 56, 0, 1.0, 57, 0, 1.0, 58, 0, 0.0, 59, 0, 1.0, 60, 0, 0.0, 61, 0, 0.0, 62, 0, 0.0, 63, 0, 0.0 ]
						}
, 						{
							"number" : 16,
							"data" : [ 28, "obj-2", "matrixctrl", "list", 0, 0, 1.0, 1, 0, 0.0, 2, 0, 1.0, 3, 0, 1.0, 4, 0, 1.0, 5, 0, 1.0, 6, 0, 1.0, 7, 0, 1.0 ]
						}
, 						{
							"number" : 17,
							"data" : [ 196, "obj-2", "matrixctrl", "list", 0, 0, 1.0, 1, 0, 0.0, 2, 0, 0.0, 3, 0, 0.0, 4, 0, 0.0, 5, 0, 0.0, 6, 0, 0.0, 7, 0, 0.0, 8, 0, 1.0, 9, 0, 0.0, 10, 0, 0.0, 11, 0, 0.0, 12, 0, 0.0, 13, 0, 0.0, 14, 0, 0.0, 15, 0, 0.0, 16, 0, 1.0, 17, 0, 0.0, 18, 0, 0.0, 19, 0, 0.0, 20, 0, 0.0, 21, 0, 0.0, 22, 0, 0.0, 23, 0, 0.0, 24, 0, 1.0, 25, 0, 0.0, 26, 0, 0.0, 27, 0, 0.0, 28, 0, 0.0, 29, 0, 0.0, 30, 0, 0.0, 31, 0, 0.0, 32, 0, 1.0, 33, 0, 0.0, 34, 0, 0.0, 35, 0, 0.0, 36, 0, 0.0, 37, 0, 0.0, 38, 0, 0.0, 39, 0, 0.0, 40, 0, 1.0, 41, 0, 0.0, 42, 0, 0.0, 43, 0, 0.0, 44, 0, 0.0, 45, 0, 0.0, 46, 0, 0.0, 47, 0, 0.0, 48, 0, 1.0, 49, 0, 0.0, 50, 0, 0.0, 51, 0, 0.0, 52, 0, 0.0, 53, 0, 0.0, 54, 0, 0.0, 55, 0, 0.0, 56, 0, 1.0, 57, 0, 0.0, 58, 0, 0.0, 59, 0, 0.0, 60, 0, 0.0, 61, 0, 0.0, 62, 0, 0.0, 63, 0, 0.0 ]
						}
 ]
				}

			}
, 			{
				"box" : 				{
					"id" : "obj-86",
					"maxclass" : "preset",
					"numinlets" : 1,
					"numoutlets" : 5,
					"outlettype" : [ "preset", "int", "preset", "int", "" ],
					"patching_rect" : [ 205.33333945274353, 642.999999433755875, 129.600001931190491, 76.000001132488251 ],
					"preset_data" : [ 						{
							"number" : 1,
							"data" : [ 22, "obj-1", "matrixctrl", "list", 0, 0, 1.0, 1, 0, 0.0, 2, 0, 0.0, 3, 0, 0.0, 4, 0, 0.0, 5, 0, 0.0 ]
						}
, 						{
							"number" : 2,
							"data" : [ 22, "obj-1", "matrixctrl", "list", 0, 0, 1.0, 1, 0, 0.0, 2, 0, 0.0, 3, 0, 1.0, 4, 0, 0.0, 5, 0, 0.0 ]
						}
, 						{
							"number" : 3,
							"data" : [ 22, "obj-1", "matrixctrl", "list", 0, 0, 1.0, 1, 0, 0.0, 2, 0, 1.0, 3, 0, 0.0, 4, 0, 1.0, 5, 0, 0.0 ]
						}
, 						{
							"number" : 4,
							"data" : [ 22, "obj-1", "matrixctrl", "list", 0, 0, 1.0, 1, 0, 1.0, 2, 0, 0.0, 3, 0, 1.0, 4, 0, 0.0, 5, 0, 0.0 ]
						}
, 						{
							"number" : 5,
							"data" : [ 22, "obj-1", "matrixctrl", "list", 0, 0, 1.0, 1, 0, 1.0, 2, 0, 0.0, 3, 0, 0.0, 4, 0, 1.0, 5, 0, 1.0 ]
						}
, 						{
							"number" : 6,
							"data" : [ 22, "obj-1", "matrixctrl", "list", 0, 0, 1.0, 1, 0, 1.0, 2, 0, 1.0, 3, 0, 1.0, 4, 0, 1.0, 5, 0, 1.0 ]
						}
, 						{
							"number" : 7,
							"data" : [ 148, "obj-1", "matrixctrl", "list", 0, 0, 1.0, 1, 0, 0.0, 2, 0, 0.0, 3, 0, 1.0, 4, 0, 0.0, 5, 0, 0.0, 6, 0, 1.0, 7, 0, 0.0, 8, 0, 0.0, 9, 0, 1.0, 10, 0, 0.0, 11, 0, 0.0, 12, 0, 1.0, 13, 0, 0.0, 14, 0, 0.0, 15, 0, 1.0, 16, 0, 0.0, 17, 0, 0.0, 18, 0, 1.0, 19, 0, 0.0, 20, 0, 1.0, 21, 0, 0.0, 22, 0, 0.0, 23, 0, 0.0, 24, 0, 1.0, 25, 0, 0.0, 26, 0, 0.0, 27, 0, 1.0, 28, 0, 0.0, 29, 0, 0.0, 30, 0, 1.0, 31, 0, 0.0, 32, 0, 0.0, 33, 0, 1.0, 34, 0, 0.0, 35, 0, 0.0, 36, 0, 1.0, 37, 0, 0.0, 38, 0, 0.0, 39, 0, 1.0, 40, 0, 0.0, 41, 0, 0.0, 42, 0, 1.0, 43, 0, 1.0, 44, 0, 0.0, 45, 0, 1.0, 46, 0, 0.0, 47, 0, 1.0 ]
						}
, 						{
							"number" : 10,
							"data" : [ 148, "obj-1", "matrixctrl", "list", 0, 0, 1.0, 1, 0, 0.0, 2, 0, 0.0, 3, 0, 0.0, 4, 0, 0.0, 5, 0, 0.0, 6, 0, 1.0, 7, 0, 0.0, 8, 0, 0.0, 9, 0, 0.0, 10, 0, 0.0, 11, 0, 0.0, 12, 0, 1.0, 13, 0, 0.0, 14, 0, 0.0, 15, 0, 0.0, 16, 0, 0.0, 17, 0, 0.0, 18, 0, 1.0, 19, 0, 0.0, 20, 0, 0.0, 21, 0, 0.0, 22, 0, 0.0, 23, 0, 0.0, 24, 0, 1.0, 25, 0, 0.0, 26, 0, 0.0, 27, 0, 0.0, 28, 0, 0.0, 29, 0, 0.0, 30, 0, 1.0, 31, 0, 0.0, 32, 0, 0.0, 33, 0, 0.0, 34, 0, 0.0, 35, 0, 0.0, 36, 0, 1.0, 37, 0, 0.0, 38, 0, 0.0, 39, 0, 0.0, 40, 0, 0.0, 41, 0, 0.0, 42, 0, 1.0, 43, 0, 0.0, 44, 0, 0.0, 45, 0, 0.0, 46, 0, 0.0, 47, 0, 0.0 ]
						}
 ]
				}

			}
, 			{
				"box" : 				{
					"id" : "obj-74",
					"maxclass" : "newobj",
					"numinlets" : 2,
					"numoutlets" : 1,
					"outlettype" : [ "signal" ],
					"patching_rect" : [ 1815.0, 1629.0, 40.0, 22.0 ],
					"text" : "*~ 0.1"
				}

			}
, 			{
				"box" : 				{
					"channels" : 1,
					"id" : "obj-75",
					"lastchannelcount" : 0,
					"maxclass" : "live.gain~",
					"numinlets" : 1,
					"numoutlets" : 4,
					"outlettype" : [ "signal", "", "float", "list" ],
					"parameter_enable" : 1,
					"patching_rect" : [ 1815.0, 1475.0, 48.0, 136.0 ],
					"saved_attribute_attributes" : 					{
						"valueof" : 						{
							"parameter_longname" : "live.gain~[2]",
							"parameter_mmax" : 6.0,
							"parameter_mmin" : -70.0,
							"parameter_modmode" : 3,
							"parameter_shortname" : "live.gain~",
							"parameter_type" : 0,
							"parameter_unitstyle" : 4
						}

					}
,
					"varname" : "live.gain~[2]"
				}

			}
, 			{
				"box" : 				{
					"id" : "obj-76",
					"maxclass" : "newobj",
					"numinlets" : 2,
					"numoutlets" : 2,
					"outlettype" : [ "signal", "bang" ],
					"patching_rect" : [ 1993.0, 1385.0, 34.0, 22.0 ],
					"text" : "line~"
				}

			}
, 			{
				"box" : 				{
					"addpoints" : [ 0.0, 0.0, 0, 0.0, 1.0, 0, 112.765959602721196, 0.090666649341583, 0, 346.808516281716379, 0.0, 0 ],
					"classic_curve" : 1,
					"id" : "obj-77",
					"maxclass" : "function",
					"numinlets" : 1,
					"numoutlets" : 4,
					"outlettype" : [ "float", "", "", "bang" ],
					"parameter_enable" : 0,
					"patching_rect" : [ 1972.0, 1257.0, 200.0, 100.0 ]
				}

			}
, 			{
				"box" : 				{
					"id" : "obj-78",
					"maxclass" : "newobj",
					"numinlets" : 2,
					"numoutlets" : 1,
					"outlettype" : [ "signal" ],
					"patching_rect" : [ 1815.0, 1402.0, 34.0, 22.0 ],
					"text" : "*~ 0."
				}

			}
, 			{
				"box" : 				{
					"id" : "obj-79",
					"maxclass" : "newobj",
					"numinlets" : 2,
					"numoutlets" : 1,
					"outlettype" : [ "signal" ],
					"patching_rect" : [ 1815.0, 1313.0, 73.0, 22.0 ],
					"text" : "cycle~ 1200"
				}

			}
, 			{
				"box" : 				{
					"id" : "obj-80",
					"maxclass" : "number",
					"numinlets" : 1,
					"numoutlets" : 2,
					"outlettype" : [ "", "bang" ],
					"parameter_enable" : 0,
					"patching_rect" : [ 1972.0, 1133.0, 50.0, 22.0 ]
				}

			}
, 			{
				"box" : 				{
					"id" : "obj-81",
					"maxclass" : "button",
					"numinlets" : 1,
					"numoutlets" : 1,
					"outlettype" : [ "bang" ],
					"parameter_enable" : 0,
					"patching_rect" : [ 1972.0, 1220.0, 24.0, 24.0 ]
				}

			}
, 			{
				"box" : 				{
					"id" : "obj-82",
					"maxclass" : "newobj",
					"numinlets" : 2,
					"numoutlets" : 2,
					"outlettype" : [ "bang", "" ],
					"patching_rect" : [ 1972.0, 1178.0, 42.0, 22.0 ],
					"text" : "sel 1"
				}

			}
, 			{
				"box" : 				{
					"id" : "obj-72",
					"maxclass" : "newobj",
					"numinlets" : 1,
					"numoutlets" : 1,
					"outlettype" : [ "" ],
					"patching_rect" : [ 953.0, 717.0, 111.0, 22.0 ],
					"text" : "prepend getcolumn"
				}

			}
, 			{
				"box" : 				{
					"id" : "obj-73",
					"maxclass" : "newobj",
					"numinlets" : 2,
					"numoutlets" : 1,
					"outlettype" : [ "int" ],
					"patching_rect" : [ 953.0, 682.0, 29.5, 22.0 ],
					"text" : "- 1"
				}

			}
, 			{
				"box" : 				{
					"columns" : 80,
					"id" : "obj-71",
					"maxclass" : "matrixctrl",
					"numinlets" : 1,
					"numoutlets" : 2,
					"outlettype" : [ "list", "list" ],
					"parameter_enable" : 0,
					"patching_rect" : [ 206.0, 876.0, 1262.0, 40.75 ],
					"rows" : 1
				}

			}
, 			{
				"box" : 				{
					"id" : "obj-62",
					"maxclass" : "newobj",
					"numinlets" : 2,
					"numoutlets" : 1,
					"outlettype" : [ "signal" ],
					"patching_rect" : [ 1300.0, 1629.0, 40.0, 22.0 ],
					"text" : "*~ 0.1"
				}

			}
, 			{
				"box" : 				{
					"channels" : 1,
					"id" : "obj-63",
					"lastchannelcount" : 0,
					"maxclass" : "live.gain~",
					"numinlets" : 1,
					"numoutlets" : 4,
					"outlettype" : [ "signal", "", "float", "list" ],
					"parameter_enable" : 1,
					"patching_rect" : [ 1300.0, 1475.0, 48.0, 136.0 ],
					"saved_attribute_attributes" : 					{
						"valueof" : 						{
							"parameter_longname" : "live.gain~[1]",
							"parameter_mmax" : 6.0,
							"parameter_mmin" : -70.0,
							"parameter_modmode" : 3,
							"parameter_shortname" : "live.gain~",
							"parameter_type" : 0,
							"parameter_unitstyle" : 4
						}

					}
,
					"varname" : "live.gain~[1]"
				}

			}
, 			{
				"box" : 				{
					"id" : "obj-64",
					"maxclass" : "newobj",
					"numinlets" : 2,
					"numoutlets" : 2,
					"outlettype" : [ "signal", "bang" ],
					"patching_rect" : [ 1478.0, 1385.0, 34.0, 22.0 ],
					"text" : "line~"
				}

			}
, 			{
				"box" : 				{
					"addpoints" : [ 0.0, 0.0, 0, 0.0, 1.0, 0, 112.765959602721196, 0.090666649341583, 0, 346.808516281716379, 0.0, 0 ],
					"classic_curve" : 1,
					"id" : "obj-65",
					"maxclass" : "function",
					"numinlets" : 1,
					"numoutlets" : 4,
					"outlettype" : [ "float", "", "", "bang" ],
					"parameter_enable" : 0,
					"patching_rect" : [ 1457.0, 1257.0, 200.0, 100.0 ]
				}

			}
, 			{
				"box" : 				{
					"id" : "obj-66",
					"maxclass" : "newobj",
					"numinlets" : 2,
					"numoutlets" : 1,
					"outlettype" : [ "signal" ],
					"patching_rect" : [ 1300.0, 1402.0, 34.0, 22.0 ],
					"text" : "*~ 0."
				}

			}
, 			{
				"box" : 				{
					"id" : "obj-67",
					"maxclass" : "newobj",
					"numinlets" : 2,
					"numoutlets" : 1,
					"outlettype" : [ "signal" ],
					"patching_rect" : [ 1300.0, 1313.0, 66.0, 22.0 ],
					"text" : "cycle~ 800"
				}

			}
, 			{
				"box" : 				{
					"id" : "obj-68",
					"maxclass" : "number",
					"numinlets" : 1,
					"numoutlets" : 2,
					"outlettype" : [ "", "bang" ],
					"parameter_enable" : 0,
					"patching_rect" : [ 1457.0, 1133.0, 50.0, 22.0 ]
				}

			}
, 			{
				"box" : 				{
					"id" : "obj-69",
					"maxclass" : "button",
					"numinlets" : 1,
					"numoutlets" : 1,
					"outlettype" : [ "bang" ],
					"parameter_enable" : 0,
					"patching_rect" : [ 1457.0, 1220.0, 24.0, 24.0 ]
				}

			}
, 			{
				"box" : 				{
					"id" : "obj-70",
					"maxclass" : "newobj",
					"numinlets" : 2,
					"numoutlets" : 2,
					"outlettype" : [ "bang", "" ],
					"patching_rect" : [ 1457.0, 1178.0, 42.0, 22.0 ],
					"text" : "sel 1"
				}

			}
, 			{
				"box" : 				{
					"id" : "obj-60",
					"maxclass" : "newobj",
					"numinlets" : 1,
					"numoutlets" : 1,
					"outlettype" : [ "" ],
					"patching_rect" : [ 764.0, 717.0, 111.0, 22.0 ],
					"text" : "prepend getcolumn"
				}

			}
, 			{
				"box" : 				{
					"id" : "obj-61",
					"maxclass" : "newobj",
					"numinlets" : 2,
					"numoutlets" : 1,
					"outlettype" : [ "int" ],
					"patching_rect" : [ 764.0, 682.0, 29.5, 22.0 ],
					"text" : "- 1"
				}

			}
, 			{
				"box" : 				{
					"id" : "obj-58",
					"maxclass" : "newobj",
					"numinlets" : 2,
					"numoutlets" : 1,
					"outlettype" : [ "signal" ],
					"patching_rect" : [ 848.0, 1635.0, 40.0, 22.0 ],
					"text" : "*~ 0.1"
				}

			}
, 			{
				"box" : 				{
					"id" : "obj-57",
					"maxclass" : "newobj",
					"numinlets" : 2,
					"numoutlets" : 0,
					"patching_rect" : [ 848.0, 1741.0, 55.0, 22.0 ],
					"text" : "dac~ 1 2"
				}

			}
, 			{
				"box" : 				{
					"channels" : 1,
					"id" : "obj-56",
					"lastchannelcount" : 0,
					"maxclass" : "live.gain~",
					"numinlets" : 1,
					"numoutlets" : 4,
					"outlettype" : [ "signal", "", "float", "list" ],
					"parameter_enable" : 1,
					"patching_rect" : [ 848.0, 1481.0, 48.0, 136.0 ],
					"saved_attribute_attributes" : 					{
						"valueof" : 						{
							"parameter_longname" : "live.gain~",
							"parameter_mmax" : 6.0,
							"parameter_mmin" : -70.0,
							"parameter_modmode" : 3,
							"parameter_shortname" : "live.gain~",
							"parameter_type" : 0,
							"parameter_unitstyle" : 4
						}

					}
,
					"varname" : "live.gain~"
				}

			}
, 			{
				"box" : 				{
					"id" : "obj-55",
					"maxclass" : "newobj",
					"numinlets" : 2,
					"numoutlets" : 2,
					"outlettype" : [ "signal", "bang" ],
					"patching_rect" : [ 1025.0, 1390.0, 34.0, 22.0 ],
					"text" : "line~"
				}

			}
, 			{
				"box" : 				{
					"addpoints" : [ 0.0, 0.0, 0, 0.0, 1.0, 0, 170.744803357631611, 0.123999857902527, 0, 472.872467434152668, 0.0, 0 ],
					"classic_curve" : 1,
					"id" : "obj-54",
					"maxclass" : "function",
					"numinlets" : 1,
					"numoutlets" : 4,
					"outlettype" : [ "float", "", "", "bang" ],
					"parameter_enable" : 0,
					"patching_rect" : [ 965.0, 1266.0, 200.0, 100.0 ]
				}

			}
, 			{
				"box" : 				{
					"id" : "obj-53",
					"maxclass" : "newobj",
					"numinlets" : 2,
					"numoutlets" : 1,
					"outlettype" : [ "signal" ],
					"patching_rect" : [ 848.0, 1408.0, 34.0, 22.0 ],
					"text" : "*~ 0."
				}

			}
, 			{
				"box" : 				{
					"id" : "obj-52",
					"maxclass" : "newobj",
					"numinlets" : 2,
					"numoutlets" : 1,
					"outlettype" : [ "signal" ],
					"patching_rect" : [ 848.0, 1319.0, 66.0, 22.0 ],
					"text" : "cycle~ 500"
				}

			}
, 			{
				"box" : 				{
					"id" : "obj-51",
					"maxclass" : "number",
					"numinlets" : 1,
					"numoutlets" : 2,
					"outlettype" : [ "", "bang" ],
					"parameter_enable" : 0,
					"patching_rect" : [ 1004.0, 1138.0, 50.0, 22.0 ]
				}

			}
, 			{
				"box" : 				{
					"id" : "obj-49",
					"maxclass" : "button",
					"numinlets" : 1,
					"numoutlets" : 1,
					"outlettype" : [ "bang" ],
					"parameter_enable" : 0,
					"patching_rect" : [ 1004.0, 1225.0, 24.0, 24.0 ]
				}

			}
, 			{
				"box" : 				{
					"id" : "obj-47",
					"maxclass" : "newobj",
					"numinlets" : 2,
					"numoutlets" : 2,
					"outlettype" : [ "bang", "" ],
					"patching_rect" : [ 1004.0, 1184.0, 42.0, 22.0 ],
					"text" : "sel 1"
				}

			}
, 			{
				"box" : 				{
					"id" : "obj-42",
					"maxclass" : "newobj",
					"numinlets" : 1,
					"numoutlets" : 1,
					"outlettype" : [ "" ],
					"patching_rect" : [ 591.0, 717.0, 111.0, 22.0 ],
					"text" : "prepend getcolumn"
				}

			}
, 			{
				"box" : 				{
					"id" : "obj-33",
					"maxclass" : "newobj",
					"numinlets" : 2,
					"numoutlets" : 1,
					"outlettype" : [ "int" ],
					"patching_rect" : [ 591.0, 682.0, 29.5, 22.0 ],
					"text" : "- 1"
				}

			}
, 			{
				"box" : 				{
					"id" : "obj-30",
					"maxclass" : "number",
					"numinlets" : 1,
					"numoutlets" : 2,
					"outlettype" : [ "", "bang" ],
					"parameter_enable" : 0,
					"patching_rect" : [ 953.0, 630.0, 50.0, 22.0 ]
				}

			}
, 			{
				"box" : 				{
					"id" : "obj-28",
					"maxclass" : "number",
					"numinlets" : 1,
					"numoutlets" : 2,
					"outlettype" : [ "", "bang" ],
					"parameter_enable" : 0,
					"patching_rect" : [ 764.0, 630.0, 50.0, 22.0 ]
				}

			}
, 			{
				"box" : 				{
					"id" : "obj-27",
					"maxclass" : "number",
					"numinlets" : 1,
					"numoutlets" : 2,
					"outlettype" : [ "", "bang" ],
					"parameter_enable" : 0,
					"patching_rect" : [ 591.0, 630.0, 50.0, 22.0 ]
				}

			}
, 			{
				"box" : 				{
					"id" : "obj-13",
					"maxclass" : "newobj",
					"numinlets" : 2,
					"numoutlets" : 1,
					"outlettype" : [ "int" ],
					"patching_rect" : [ 205.33333945274353, 527.0, 29.5, 22.0 ],
					"text" : "+ 1"
				}

			}
, 			{
				"box" : 				{
					"id" : "obj-12",
					"maxclass" : "number",
					"numinlets" : 1,
					"numoutlets" : 2,
					"outlettype" : [ "", "bang" ],
					"parameter_enable" : 0,
					"patching_rect" : [ 205.33333945274353, 258.0, 50.0, 22.0 ]
				}

			}
, 			{
				"box" : 				{
					"id" : "obj-10",
					"maxclass" : "button",
					"numinlets" : 1,
					"numoutlets" : 1,
					"outlettype" : [ "bang" ],
					"parameter_enable" : 0,
					"patching_rect" : [ 206.33333945274353, 139.0, 73.600001096725464, 73.600001096725464 ]
				}

			}
, 			{
				"box" : 				{
					"id" : "obj-7",
					"maxclass" : "newobj",
					"numinlets" : 2,
					"numoutlets" : 1,
					"outlettype" : [ "" ],
					"patching_rect" : [ 205.33333945274353, 226.0, 66.0, 22.0 ],
					"text" : "random 10"
				}

			}
, 			{
				"box" : 				{
					"id" : "obj-6",
					"maxclass" : "number",
					"numinlets" : 1,
					"numoutlets" : 2,
					"outlettype" : [ "", "bang" ],
					"parameter_enable" : 0,
					"patching_rect" : [ 205.33333945274353, 566.0, 50.0, 22.0 ]
				}

			}
, 			{
				"box" : 				{
					"id" : "obj-4",
					"maxclass" : "itable",
					"name" : "",
					"numinlets" : 2,
					"numoutlets" : 2,
					"outlettype" : [ "int", "bang" ],
					"parameter_enable" : 0,
					"patching_rect" : [ 205.33333945274353, 289.0, 269.0, 220.0 ],
					"range" : 5,
					"size" : 10,
					"table_data" : [ 0, 0, 1, 1, 2, 3, 3, 3, 4, 4, 4 ]
				}

			}
, 			{
				"box" : 				{
					"columns" : 64,
					"id" : "obj-2",
					"maxclass" : "matrixctrl",
					"numinlets" : 1,
					"numoutlets" : 2,
					"outlettype" : [ "list", "list" ],
					"parameter_enable" : 0,
					"patching_rect" : [ 206.0, 815.0, 1262.5, 29.5 ],
					"rows" : 1
				}

			}
, 			{
				"box" : 				{
					"columns" : 48,
					"id" : "obj-1",
					"maxclass" : "matrixctrl",
					"numinlets" : 1,
					"numoutlets" : 2,
					"outlettype" : [ "list", "list" ],
					"parameter_enable" : 0,
					"patching_rect" : [ 205.33333945274353, 753.333355784416199, 1262.666704297065735, 29.33333420753479 ],
					"rows" : 1
				}

			}
 ],
		"lines" : [ 			{
				"patchline" : 				{
					"destination" : [ "obj-51", 0 ],
					"source" : [ "obj-1", 1 ]
				}

			}
, 			{
				"patchline" : 				{
					"destination" : [ "obj-7", 0 ],
					"source" : [ "obj-10", 0 ]
				}

			}
, 			{
				"patchline" : 				{
					"destination" : [ "obj-95", 0 ],
					"source" : [ "obj-100", 0 ]
				}

			}
, 			{
				"patchline" : 				{
					"destination" : [ "obj-105", 0 ],
					"source" : [ "obj-101", 0 ]
				}

			}
, 			{
				"patchline" : 				{
					"destination" : [ "obj-106", 0 ],
					"source" : [ "obj-102", 0 ]
				}

			}
, 			{
				"patchline" : 				{
					"destination" : [ "obj-104", 0 ],
					"source" : [ "obj-103", 0 ]
				}

			}
, 			{
				"patchline" : 				{
					"destination" : [ "obj-102", 0 ],
					"source" : [ "obj-104", 0 ]
				}

			}
, 			{
				"patchline" : 				{
					"destination" : [ "obj-94", 0 ],
					"source" : [ "obj-105", 0 ]
				}

			}
, 			{
				"patchline" : 				{
					"destination" : [ "obj-101", 0 ],
					"source" : [ "obj-106", 0 ]
				}

			}
, 			{
				"patchline" : 				{
					"destination" : [ "obj-86", 0 ],
					"source" : [ "obj-113", 0 ]
				}

			}
, 			{
				"patchline" : 				{
					"destination" : [ "obj-88", 0 ],
					"source" : [ "obj-114", 0 ]
				}

			}
, 			{
				"patchline" : 				{
					"destination" : [ "obj-90", 0 ],
					"source" : [ "obj-115", 0 ]
				}

			}
, 			{
				"patchline" : 				{
					"destination" : [ "obj-57", 0 ],
					"source" : [ "obj-117", 0 ]
				}

			}
, 			{
				"patchline" : 				{
					"destination" : [ "obj-4", 0 ],
					"source" : [ "obj-12", 0 ]
				}

			}
, 			{
				"patchline" : 				{
					"destination" : [ "obj-6", 0 ],
					"source" : [ "obj-13", 0 ]
				}

			}
, 			{
				"patchline" : 				{
					"destination" : [ "obj-37", 0 ],
					"source" : [ "obj-15", 0 ]
				}

			}
, 			{
				"patchline" : 				{
					"destination" : [ "obj-58", 1 ],
					"order" : 2,
					"source" : [ "obj-162", 0 ]
				}

			}
, 			{
				"patchline" : 				{
					"destination" : [ "obj-62", 1 ],
					"order" : 1,
					"source" : [ "obj-162", 0 ]
				}

			}
, 			{
				"patchline" : 				{
					"destination" : [ "obj-74", 1 ],
					"order" : 0,
					"source" : [ "obj-162", 0 ]
				}

			}
, 			{
				"patchline" : 				{
					"destination" : [ "obj-15", 0 ],
					"source" : [ "obj-19", 0 ]
				}

			}
, 			{
				"patchline" : 				{
					"destination" : [ "obj-68", 0 ],
					"source" : [ "obj-2", 1 ]
				}

			}
, 			{
				"patchline" : 				{
					"destination" : [ "obj-38", 0 ],
					"source" : [ "obj-26", 0 ]
				}

			}
, 			{
				"patchline" : 				{
					"destination" : [ "obj-33", 0 ],
					"source" : [ "obj-27", 0 ]
				}

			}
, 			{
				"patchline" : 				{
					"destination" : [ "obj-61", 0 ],
					"source" : [ "obj-28", 0 ]
				}

			}
, 			{
				"patchline" : 				{
					"destination" : [ "obj-19", 0 ],
					"order" : 1,
					"source" : [ "obj-3", 0 ]
				}

			}
, 			{
				"patchline" : 				{
					"destination" : [ "obj-32", 0 ],
					"order" : 0,
					"source" : [ "obj-3", 0 ]
				}

			}
, 			{
				"patchline" : 				{
					"destination" : [ "obj-41", 0 ],
					"order" : 3,
					"source" : [ "obj-3", 0 ]
				}

			}
, 			{
				"patchline" : 				{
					"destination" : [ "obj-5", 0 ],
					"order" : 2,
					"source" : [ "obj-3", 0 ]
				}

			}
, 			{
				"patchline" : 				{
					"destination" : [ "obj-73", 0 ],
					"source" : [ "obj-30", 0 ]
				}

			}
, 			{
				"patchline" : 				{
					"destination" : [ "obj-26", 0 ],
					"source" : [ "obj-32", 0 ]
				}

			}
, 			{
				"patchline" : 				{
					"destination" : [ "obj-42", 0 ],
					"source" : [ "obj-33", 0 ]
				}

			}
, 			{
				"patchline" : 				{
					"destination" : [ "obj-3", 1 ],
					"source" : [ "obj-35", 0 ]
				}

			}
, 			{
				"patchline" : 				{
					"destination" : [ "obj-27", 0 ],
					"source" : [ "obj-36", 0 ]
				}

			}
, 			{
				"patchline" : 				{
					"destination" : [ "obj-28", 0 ],
					"source" : [ "obj-37", 0 ]
				}

			}
, 			{
				"patchline" : 				{
					"destination" : [ "obj-30", 0 ],
					"source" : [ "obj-38", 0 ]
				}

			}
, 			{
				"patchline" : 				{
					"destination" : [ "obj-13", 0 ],
					"source" : [ "obj-4", 0 ]
				}

			}
, 			{
				"patchline" : 				{
					"destination" : [ "obj-1", 0 ],
					"source" : [ "obj-42", 0 ]
				}

			}
, 			{
				"patchline" : 				{
					"destination" : [ "obj-49", 0 ],
					"source" : [ "obj-47", 0 ]
				}

			}
, 			{
				"patchline" : 				{
					"destination" : [ "obj-54", 0 ],
					"source" : [ "obj-49", 0 ]
				}

			}
, 			{
				"patchline" : 				{
					"destination" : [ "obj-8", 0 ],
					"source" : [ "obj-5", 0 ]
				}

			}
, 			{
				"patchline" : 				{
					"destination" : [ "obj-47", 0 ],
					"source" : [ "obj-51", 0 ]
				}

			}
, 			{
				"patchline" : 				{
					"destination" : [ "obj-53", 0 ],
					"source" : [ "obj-52", 0 ]
				}

			}
, 			{
				"patchline" : 				{
					"destination" : [ "obj-56", 0 ],
					"source" : [ "obj-53", 0 ]
				}

			}
, 			{
				"patchline" : 				{
					"destination" : [ "obj-55", 0 ],
					"source" : [ "obj-54", 1 ]
				}

			}
, 			{
				"patchline" : 				{
					"destination" : [ "obj-53", 1 ],
					"source" : [ "obj-55", 0 ]
				}

			}
, 			{
				"patchline" : 				{
					"destination" : [ "obj-58", 0 ],
					"source" : [ "obj-56", 0 ]
				}

			}
, 			{
				"patchline" : 				{
					"destination" : [ "obj-57", 1 ],
					"order" : 0,
					"source" : [ "obj-58", 0 ]
				}

			}
, 			{
				"patchline" : 				{
					"destination" : [ "obj-57", 0 ],
					"order" : 1,
					"source" : [ "obj-58", 0 ]
				}

			}
, 			{
				"patchline" : 				{
					"destination" : [ "obj-92", 0 ],
					"source" : [ "obj-6", 0 ]
				}

			}
, 			{
				"patchline" : 				{
					"destination" : [ "obj-2", 0 ],
					"source" : [ "obj-60", 0 ]
				}

			}
, 			{
				"patchline" : 				{
					"destination" : [ "obj-60", 0 ],
					"source" : [ "obj-61", 0 ]
				}

			}
, 			{
				"patchline" : 				{
					"destination" : [ "obj-57", 1 ],
					"order" : 0,
					"source" : [ "obj-62", 0 ]
				}

			}
, 			{
				"patchline" : 				{
					"destination" : [ "obj-57", 0 ],
					"order" : 1,
					"source" : [ "obj-62", 0 ]
				}

			}
, 			{
				"patchline" : 				{
					"destination" : [ "obj-62", 0 ],
					"source" : [ "obj-63", 0 ]
				}

			}
, 			{
				"patchline" : 				{
					"destination" : [ "obj-66", 1 ],
					"source" : [ "obj-64", 0 ]
				}

			}
, 			{
				"patchline" : 				{
					"destination" : [ "obj-64", 0 ],
					"source" : [ "obj-65", 1 ]
				}

			}
, 			{
				"patchline" : 				{
					"destination" : [ "obj-63", 0 ],
					"source" : [ "obj-66", 0 ]
				}

			}
, 			{
				"patchline" : 				{
					"destination" : [ "obj-66", 0 ],
					"source" : [ "obj-67", 0 ]
				}

			}
, 			{
				"patchline" : 				{
					"destination" : [ "obj-70", 0 ],
					"source" : [ "obj-68", 0 ]
				}

			}
, 			{
				"patchline" : 				{
					"destination" : [ "obj-65", 0 ],
					"source" : [ "obj-69", 0 ]
				}

			}
, 			{
				"patchline" : 				{
					"destination" : [ "obj-12", 0 ],
					"source" : [ "obj-7", 0 ]
				}

			}
, 			{
				"patchline" : 				{
					"destination" : [ "obj-69", 0 ],
					"source" : [ "obj-70", 0 ]
				}

			}
, 			{
				"patchline" : 				{
					"destination" : [ "obj-80", 0 ],
					"source" : [ "obj-71", 1 ]
				}

			}
, 			{
				"patchline" : 				{
					"destination" : [ "obj-71", 0 ],
					"source" : [ "obj-72", 0 ]
				}

			}
, 			{
				"patchline" : 				{
					"destination" : [ "obj-72", 0 ],
					"source" : [ "obj-73", 0 ]
				}

			}
, 			{
				"patchline" : 				{
					"destination" : [ "obj-57", 1 ],
					"order" : 0,
					"source" : [ "obj-74", 0 ]
				}

			}
, 			{
				"patchline" : 				{
					"destination" : [ "obj-57", 0 ],
					"order" : 1,
					"source" : [ "obj-74", 0 ]
				}

			}
, 			{
				"patchline" : 				{
					"destination" : [ "obj-74", 0 ],
					"source" : [ "obj-75", 0 ]
				}

			}
, 			{
				"patchline" : 				{
					"destination" : [ "obj-78", 1 ],
					"source" : [ "obj-76", 0 ]
				}

			}
, 			{
				"patchline" : 				{
					"destination" : [ "obj-76", 0 ],
					"source" : [ "obj-77", 1 ]
				}

			}
, 			{
				"patchline" : 				{
					"destination" : [ "obj-75", 0 ],
					"source" : [ "obj-78", 0 ]
				}

			}
, 			{
				"patchline" : 				{
					"destination" : [ "obj-78", 0 ],
					"source" : [ "obj-79", 0 ]
				}

			}
, 			{
				"patchline" : 				{
					"destination" : [ "obj-36", 0 ],
					"source" : [ "obj-8", 0 ]
				}

			}
, 			{
				"patchline" : 				{
					"destination" : [ "obj-82", 0 ],
					"source" : [ "obj-80", 0 ]
				}

			}
, 			{
				"patchline" : 				{
					"destination" : [ "obj-77", 0 ],
					"source" : [ "obj-81", 0 ]
				}

			}
, 			{
				"patchline" : 				{
					"destination" : [ "obj-81", 0 ],
					"source" : [ "obj-82", 0 ]
				}

			}
, 			{
				"patchline" : 				{
					"destination" : [ "obj-1", 0 ],
					"source" : [ "obj-86", 0 ]
				}

			}
, 			{
				"patchline" : 				{
					"destination" : [ "obj-2", 0 ],
					"source" : [ "obj-88", 0 ]
				}

			}
, 			{
				"patchline" : 				{
					"destination" : [ "obj-71", 0 ],
					"source" : [ "obj-90", 0 ]
				}

			}
, 			{
				"patchline" : 				{
					"destination" : [ "obj-86", 0 ],
					"source" : [ "obj-92", 0 ]
				}

			}
, 			{
				"patchline" : 				{
					"destination" : [ "obj-88", 0 ],
					"source" : [ "obj-93", 0 ]
				}

			}
, 			{
				"patchline" : 				{
					"destination" : [ "obj-90", 0 ],
					"source" : [ "obj-94", 0 ]
				}

			}
, 			{
				"patchline" : 				{
					"destination" : [ "obj-99", 0 ],
					"source" : [ "obj-95", 0 ]
				}

			}
, 			{
				"patchline" : 				{
					"destination" : [ "obj-100", 0 ],
					"source" : [ "obj-96", 0 ]
				}

			}
, 			{
				"patchline" : 				{
					"destination" : [ "obj-98", 0 ],
					"source" : [ "obj-97", 0 ]
				}

			}
, 			{
				"patchline" : 				{
					"destination" : [ "obj-96", 0 ],
					"source" : [ "obj-98", 0 ]
				}

			}
, 			{
				"patchline" : 				{
					"destination" : [ "obj-93", 0 ],
					"source" : [ "obj-99", 0 ]
				}

			}
 ],
		"parameters" : 		{
			"obj-56" : [ "live.gain~", "live.gain~", 0 ],
			"obj-63" : [ "live.gain~[1]", "live.gain~", 0 ],
			"obj-75" : [ "live.gain~[2]", "live.gain~", 0 ],
			"parameterbanks" : 			{
				"0" : 				{
					"index" : 0,
					"name" : "",
					"parameters" : [ "-", "-", "-", "-", "-", "-", "-", "-" ]
				}

			}
,
			"inherited_shortname" : 1
		}
,
		"dependency_cache" : [  ],
		"autosave" : 0
	}

}
